Coordinates
version=1
nRows=24
nColumns=22
inDegrees=yes

Units are S.I. units (second, meters, Newtons, ...)
If the header above contains a line with 'inDegrees', this indicates whether rotational values are in degrees (yes) or radians (no).

endheader
time	pelvis_tilt	pelvis_list	pelvis_rotation	pelvis_tx	pelvis_ty	pelvis_tz	hip_flexion_r	hip_adduction_r	hip_rotation_r	knee_angle_r	ankle_angle_r	subtalar_angle_r	hip_flexion_l	hip_adduction_l	hip_rotation_l	knee_angle_l	ankle_angle_l	subtalar_angle_l	lumbar_extension	lumbar_bending	lumbar_rotation
      0.01000000	      2.16478708	      3.89973018	    176.81693969	      0.13550078	      1.01684563	      0.97450323	     -0.38427261	      1.60008619	     -4.04886119	     -9.61445849	      9.47862173	      1.06375345	     -2.52758417	     -6.44644989	    -16.05227627	     -7.18822753	     11.37782577	      0.49114000	     -2.11332474	      1.02302528	     -1.87587345
      0.02000000	      2.17722728	      3.89534793	    176.81699682	      0.13548529	      1.01681481	      0.97466428	     -0.40339578	      1.58735175	     -4.05635786	     -9.55566115	      9.47329678	      1.06736737	     -2.51048340	     -6.43424317	    -16.04988281	     -7.19679303	     11.38518889	      0.48748871	     -2.10962059	      1.02544206	     -1.85789169
      0.03000000	      2.19555752	      3.88906594	    176.81835287	      0.13545449	      1.01677769	      0.97487523	     -0.42679106	      1.56963779	     -4.06268099	     -9.47899583	      9.45697517	      1.07551609	     -2.48849829	     -6.41670760	    -16.04686863	     -7.20253899	     11.39684001	      0.48065404	     -2.10077994	      1.02845002	     -1.84232466
      0.04000000	      2.22274921	      3.88087610	    176.82373704	      0.13540356	      1.01673338	      0.97513709	     -0.45099617	      1.54756486	     -4.06163806	     -9.38491986	      9.41492988	      1.09726648	     -2.45877408	     -6.39385142	    -16.03694631	     -7.20644399	     11.41069617	      0.46566964	     -2.08344110	      1.03255435	     -1.83790226
      0.05000000	      2.25796321	      3.87346116	    176.82910019	      0.13534542	      1.01667981	      0.97542873	     -0.46939531	      1.52384333	     -4.06818257	     -9.28693828	      9.38361064	      1.12217776	     -2.42282482	     -6.37010533	    -16.02756501	     -7.20534304	     11.41936701	      0.45067271	     -2.06120659	      1.03623904	     -1.82268958
      0.06000000	      2.29460202	      3.86712828	    176.83138356	      0.13528363	      1.01662286	      0.97573164	     -0.48677374	      1.49979066	     -4.08246506	     -9.18781291	      9.36845109	      1.13996531	     -2.38736036	     -6.34633804	    -16.02187967	     -7.20263224	     11.42650020	      0.44202937	     -2.04311348	      1.03666675	     -1.79402414
      0.07000000	      2.34897813	      3.84949176	    176.84058801	      0.13520544	      1.01654822	      0.97609697	     -0.49320966	      1.46013189	     -4.07270989	     -9.07610182	      9.31328793	      1.19357816	     -2.33050578	     -6.30736405	    -16.00228830	     -7.20179967	     11.43531503	      0.42374536	     -2.00324413	      1.03370543	     -1.79799897
      0.08000000	      2.40738917	      3.83465738	    176.84606043	      0.13513425	      1.01646151	      0.97646144	     -0.49204022	      1.42200103	     -4.07293699	     -8.96967821	      9.28266083	      1.25975775	     -2.26795058	     -6.27258882	    -15.98393528	     -7.20541677	     11.44416792	      0.40674296	     -1.96410072	      1.02937979	     -1.79116994
      0.09000000	      2.48344259	      3.81911272	    176.85329772	      0.13508025	      1.01634877	      0.97684671	     -0.46343374	      1.38088408	     -4.07872032	     -8.88003827	      9.26844002	      1.38744400	     -2.17752862	     -6.23892311	    -15.95549260	     -7.22453333	     11.45089543	      0.38723347	     -1.91004304	      1.02332096	     -1.77328708
      0.10000000	      2.53402802	      3.79583541	    176.85728439	      0.13498579	      1.01626713	      0.97724736	     -0.47481377	      1.32978840	     -4.06369496	     -8.76999898	      9.25389944	      1.43492617	     -2.11880155	     -6.19406879	    -15.95035139	     -7.23983168	     11.47493489	      0.38258006	     -1.88291693	      1.00890113	     -1.77273435
      0.11000000	      2.62997352	      3.76828911	    176.86048901	      0.13492394	      1.01612569	      0.97766049	     -0.41959526	      1.27271352	     -4.06504359	     -8.69196226	      9.26041045	      1.59493447	     -1.99461410	     -6.15155290	    -15.92172901	     -7.28575937	     11.49452598	      0.38178320	     -1.80923207	      0.98951794	     -1.76316867
      0.12000000	      2.68421876	      3.73341401	    176.86609592	      0.13483592	      1.01604296	      0.97810246	     -0.42164814	      1.20565171	     -4.04304680	     -8.59217529	      9.24781051	      1.65365729	     -1.90986566	     -6.09935436	    -15.90249506	     -7.34342511	     11.52994523	      0.37777349	     -1.78441457	      0.96001944	     -1.77120776
      0.13000000	      2.79649990	      3.69179278	    176.88148940	      0.13478049	      1.01588034	      0.97859845	     -0.33652659	      1.12830924	     -4.06469427	     -8.54002665	      9.27831811	      1.82029439	     -1.73600228	     -6.04742670	    -15.85256076	     -7.44451056	     11.57129603	      0.37624263	     -1.69581635	      0.92680226	     -1.77452099
      0.14000000	      2.84733317	      3.64641681	    176.90021245	      0.13469820	      1.01580827	      0.97913030	     -0.33318565	      1.04427009	     -4.04209009	     -8.46067533	      9.28541784	      1.88715886	     -1.61546271	     -5.99020213	    -15.82313175	     -7.57092006	     11.62184710	      0.36703043	     -1.68158074	      0.88926792	     -1.80825170
      0.15000000	      2.97364714	      3.59968991	    176.93516721	      0.13468409	      1.01562363	      0.97972773	     -0.20814110	      0.95547333	     -4.09080162	     -8.45591316	      9.35449183	      2.08115264	     -1.37376643	     -5.94208435	    -15.73907812	     -7.76122783	     11.68294661	      0.35363064	     -1.58908657	      0.85362854	     -1.84259955
      0.16000000	      3.05262894	      3.54353354	    176.97896573	      0.13462384	      1.01550142	      0.98039287	     -0.14314047	      0.85153265	     -4.13478178	     -8.43688940	      9.40538194	      2.19717693	     -1.16864901	     -5.88054705	    -15.66442559	     -7.97815297	     11.77817258	      0.33095070	     -1.55020545	      0.80744415	     -1.88674472
      0.17000000	      3.13874428	      3.48834070	    177.03567317	      0.13461030	      1.01537051	      0.98112408	     -0.04823394	      0.74549579	     -4.18113657	     -8.45825597	      9.47221531	      2.32274841	     -0.92086308	     -5.82350346	    -15.56797644	     -8.25058591	     11.87354382	      0.30026905	     -1.51645848	      0.76318437	     -1.95293111
      0.18000000	      3.21921485	      3.43308156	    177.10214081	      0.13457625	      1.01523811	      0.98193479	      0.05660089	      0.63377867	     -4.23633953	     -8.51379031	      9.55106848	      2.44330445	     -0.65700390	     -5.76561449	    -15.46020867	     -8.56311199	     11.98312047	      0.25853707	     -1.48945570	      0.72147700	     -2.02302982
      0.19000000	      3.31851688	      3.38308127	    177.17558250	      0.13457398	      1.01507795	      0.98281812	      0.21267796	      0.52355600	     -4.28408137	     -8.62763709	      9.64071375	      2.58814053	     -0.35070894	     -5.71285433	    -15.33148203	     -8.90911583	     12.08418833	      0.20044909	     -1.45424604	      0.69052042	     -2.10925303
      0.20000000	      3.40341684	      3.33254697	    177.25280124	      0.13451664	      1.01492214	      0.98377464	      0.36599095	      0.40717021	     -4.34270777	     -8.77116493	      9.74579432	      2.71161733	     -0.04799770	     -5.65512074	    -15.20110765	     -9.28199650	     12.21020714	      0.13107061	     -1.43281080	      0.65677367	     -2.17886874
      0.21000000	      3.47425995	      3.28262246	    177.33026585	      0.13441860	      1.01476902	      0.98480095	      0.51830419	      0.28613766	     -4.40603466	     -8.94330435	      9.86820393	      2.81120601	      0.24474828	     -5.59254242	    -15.07616088	     -9.66747406	     12.35669631	      0.05541649	     -1.43104586	      0.62261599	     -2.22268225
      0.22000000	      3.56394337	      3.23844499	    177.40543503	      0.13431240	      1.01457767	      0.98589142	      0.72791579	      0.16716591	     -4.44860683	     -9.18864747	      9.99560895	      2.92418842	      0.55603451	     -5.52963939	    -14.93724466	    -10.05082250	     12.48268726	     -0.03552100	     -1.41328956	      0.59928311	     -2.27581514
      0.23000000	      3.65693766	      3.19042108	    177.47953078	      0.13417054	      1.01436607	      0.98705395	      0.96201150	      0.03949207	     -4.46858625	     -9.47650591	     10.12306207	      3.04277157	      0.86278736	     -5.45460344	    -14.81216143	    -10.42141766	     12.60788580	     -0.14804339	     -1.39443185	      0.57425796	     -2.33726877
      0.24000000	      3.73047248	      3.14069699	    177.55269533	      0.13398723	      1.01415384	      0.98829024	      1.20525991	     -0.09712626	     -4.50522863	     -9.82396406	     10.28384402	      3.12821044	      1.12777074	     -5.36613734	    -14.67960700	    -10.75895455	     12.73477811	     -0.25690606	     -1.40297994	      0.54597993	     -2.37093010
